<svg
	version="1.1"
	xmlns="http://www.w3.org/2000/svg"
	xmlns:xlink="http://www.w3.org/1999/xlink"
	width="1363.29345703125"
	height="1500"
	viewBox="-350 -250 1500 1500"
>
	<g>
			<g>
				<polygon
					points="367.03,110.11 96.38,266.36 96.38,387.57 367.03,231.31 637.67,387.57 637.67,266.36   "
					transform="translate(-96.3800048828125,-32.46999979019165)"
					fill="#3178c6"
				></polygon>
			</g>
			<g>
				<polygon
					points="770.83,188.72 500.18,32.47 395.22,93.07 665.86,249.32 665.86,561.84 770.83,501.24   "
					transform="translate(-96.3800048828125,-32.46999979019165)"
					fill="#3178c6"
				></polygon>
			<g>
				<polygon
					points="632.98,890.92 362.33,734.67 362.33,613.48 632.98,769.73 903.62,613.48 903.62,734.67   "
					transform="translate(-96.3800048828125,-32.46999979019165)"
					fill="#61dafb"
				></polygon>
			</g>
			<g>
				<polygon
					points="903.62,580.92 903.62,268.4 798.66,207.8 798.66,520.31 528.02,676.58 632.98,737.19   "
					transform="translate(-96.3800048828125,-32.46999979019165)"
					fill="#61dafb"
				></polygon>
			</g>
			<g>
				<polygon
					points="96.38,420.12 367.03,263.86 471.98,324.46 201.34,480.72 201.34,793.24 96.38,732.64   "
					transform="translate(-96.3800048828125,-32.46999979019165)"
					fill="#9feaf9"
				></polygon>
			</g>
			</g>
			<g>
				<polygon
					points="230.1,811.27 230.11,498.76 335.07,438.16 335.07,750.68 605.71,906.93 500.75,967.54   "
					transform="translate(-96.3800048828125,-32.46999979019165)"
					fill="#9feaf9"
				></polygon>
			</g>
		</g>
</svg>
